<svg width="159" height="64" viewBox="0 0 159 64" fill="none" xmlns="http://www.w3.org/2000/svg">
<g clip-path="url(#clip0_536_297)">
<path d="M26.2648 22.3288V32.5607H40.4506C40.1645 34.1918 39.5519 35.7486 38.6495 37.138C37.7471 38.5274 36.5734 39.7208 35.1986 40.647C32.8285 42.2717 29.8025 43.197 26.2548 43.197C19.398 43.197 13.6019 38.5064 11.5225 32.2283C10.4344 28.9254 10.4344 25.3613 11.5225 22.0584C13.6019 15.7431 19.398 11.0526 26.2548 11.0526C28.1134 11.018 29.9604 11.3528 31.6882 12.0376C33.416 12.7223 34.9901 13.7433 36.319 15.0411L43.8417 7.44595C39.1038 2.95151 32.7998 0.474799 26.2648 0.540331C21.3761 0.559061 16.5899 1.94188 12.4467 4.5327C8.30349 7.12351 4.96816 10.8191 2.81724 15.2024C0.964487 18.9067 0 22.9905 0 27.131C0 31.2715 0.964487 35.3552 2.81724 39.0595V39.0967C4.96874 43.4774 8.30497 47.1697 12.4486 49.7559C16.5923 52.3422 21.3781 53.7193 26.2648 53.7315C33.3378 53.7315 39.3202 51.3676 43.6554 47.3046C48.6241 42.6885 51.4588 35.8572 51.4588 27.7312C51.4617 25.9216 51.3163 24.1147 51.0241 22.3288H26.2648ZM123.009 21.3366C120.492 19.0099 117.064 17.8292 112.726 17.8292C107.146 17.8292 102.952 19.8979 100.18 23.9956L105.36 27.2847C107.256 24.4735 109.845 23.0679 113.126 23.0679C115.215 23.073 117.228 23.8497 118.778 25.2483C119.533 25.903 120.139 26.7119 120.554 27.6204C120.969 28.5288 121.185 29.5157 121.185 30.5143V31.8811C118.925 30.6235 116.08 29.9587 112.579 29.9587C108.495 29.9587 105.213 30.9211 102.769 32.8782C100.324 34.8353 99.0868 37.4199 99.0868 40.7066C99.0485 42.1754 99.3397 43.6342 99.9389 44.9762C100.538 46.3182 101.43 47.5096 102.55 48.463C104.848 50.5317 107.767 51.5661 111.193 51.5661C115.24 51.5661 118.45 49.7553 120.882 46.1363H121.131V50.5317H126.748V31.0104C126.765 26.9052 125.525 23.6533 123.009 21.3366V21.3366ZM118.231 43.4872C117.37 44.3624 116.343 45.0579 115.209 45.5331C114.076 46.0083 112.86 46.2538 111.63 46.2554C109.978 46.2829 108.368 45.7347 107.077 44.7051C106.474 44.2542 105.985 43.6687 105.65 42.9955C105.315 42.3222 105.142 41.5799 105.146 40.8281C105.146 39.0918 105.946 37.6506 107.516 36.5071C109.086 35.3636 111.126 34.7708 113.496 34.7708C116.766 34.7311 119.324 35.4753 121.148 36.9487C121.148 39.4614 120.164 41.6392 118.231 43.4872V43.4872ZM94.9652 8.26451C93.6468 6.94861 92.0758 5.91217 90.3464 5.2174C88.617 4.52263 86.7648 4.18383 84.901 4.22135H69.3314V50.5416H75.202V31.7794H84.8911C88.8661 31.7794 92.22 30.4498 94.9553 27.828C95.1739 27.6072 95.3925 27.384 95.6136 27.1632C98.0075 24.5547 99.2807 21.1125 99.1595 17.5766C99.0382 14.0407 97.5322 10.6935 94.9652 8.25459V8.26451ZM90.8461 23.7005C90.106 24.4892 89.2061 25.1113 88.2062 25.5254C87.2063 25.9394 86.1295 26.1358 85.0476 26.1016H75.202V9.92642H85.0476C87.1486 9.91883 89.1672 10.742 90.6623 12.2159C92.1832 13.7282 93.0533 15.7731 93.0877 17.916C93.122 20.0588 92.3178 22.1305 90.8461 23.6905V23.7005ZM152.618 18.8561L143.54 41.602H143.428L134.131 18.8561H127.749L140.616 48.5101L133.324 64.4645H139.373L159 18.8561H152.618Z" fill="#B0B0B0"/>
</g>
<defs>
<clipPath id="clip0_536_297">
<rect width="159" height="64" fill="white"/>
</clipPath>
</defs>
</svg>
