<svg width="256" height="60" viewBox="0 0 256 60" fill="none" xmlns="http://www.w3.org/2000/svg">
<g clip-path="url(#clip0_536_295)">
<path d="M49.348 25.6023H27.818C27.5511 25.6025 27.2951 25.6942 27.1064 25.8572C26.9177 26.0202 26.8116 26.2412 26.8115 26.4717V35.5593C26.8115 36.0388 27.2625 36.4291 27.8175 36.4291H36.217V47.7199C36.217 47.7199 34.331 48.275 29.117 48.275C22.9655 48.275 14.372 46.3342 14.372 30.0212C14.372 13.7046 23.3205 11.558 31.721 11.558C38.9925 11.558 42.1255 12.663 44.1185 13.1957C44.745 13.3614 45.3245 12.8232 45.3245 12.3432L47.726 3.56245C47.726 3.33799 47.638 3.06777 47.3415 2.88432C46.532 2.38576 41.5935 0 29.1165 0C14.744 0 0 5.27914 0 30.6574C0 56.0365 16.88 59.8183 31.105 59.8183C42.8825 59.8183 50.027 55.4732 50.027 55.4732C50.322 55.333 50.3535 54.9777 50.3535 54.8145V26.4717C50.3535 25.9925 49.9035 25.6023 49.3485 25.6023H49.348ZM160.248 3.17655C160.248 2.69309 159.804 2.30288 159.249 2.30288H147.126C146.993 2.30333 146.862 2.32629 146.74 2.37044C146.618 2.41459 146.507 2.47907 146.414 2.5602C146.321 2.64133 146.247 2.73751 146.197 2.84327C146.147 2.94902 146.121 3.06227 146.122 3.17655L146.124 23.4022H127.229V3.17698C127.229 2.69353 126.782 2.30331 126.228 2.30331H114.105C113.838 2.30457 113.583 2.39731 113.395 2.56114C113.207 2.72497 113.102 2.94649 113.104 3.17698V57.9419C113.104 58.4253 113.554 58.8181 114.105 58.8181H126.228C126.782 58.8181 127.228 58.4253 127.228 57.9419V34.5168H146.124L146.091 57.9414C146.091 58.4249 146.541 58.8177 147.095 58.8177H159.247C159.802 58.8177 160.246 58.4249 160.247 57.9414V3.17698L160.248 3.17655ZM72.185 10.4987C72.185 6.73036 68.685 3.6846 64.3675 3.6846C60.054 3.6846 56.5515 6.72993 56.5515 10.4987C56.5515 14.2627 60.054 17.3167 64.3675 17.3167C68.685 17.3167 72.185 14.2627 72.185 10.4987ZM71.223 46.4176V21.1381C71.2238 20.9077 71.1186 20.6864 70.9306 20.5228C70.7425 20.3592 70.4869 20.2668 70.22 20.2658H58.1355C57.581 20.2658 57.0855 20.7596 57.0855 21.2396V57.4576C57.0855 58.522 57.8535 58.8384 58.848 58.8384H69.7355C70.9305 58.8384 71.223 58.3321 71.223 57.4403V46.4176ZM206.581 20.2662H194.551C193.999 20.2662 193.55 20.6586 193.55 21.1416V47.9948C193.55 47.9948 190.494 49.9252 186.156 49.9252C181.819 49.9252 180.667 48.2258 180.667 44.5593V21.142C180.667 20.6586 180.219 20.2658 179.667 20.2658H167.458C166.907 20.2658 166.455 20.6586 166.455 21.142V46.3325C166.455 57.2232 173.486 59.8878 183.159 59.8878C191.094 59.8878 197.492 56.1035 197.492 56.1035C197.492 56.1035 197.797 58.0977 197.934 58.3342C198.072 58.5704 198.431 58.8082 198.819 58.8082L206.587 58.7789C207.137 58.7789 207.589 58.3856 207.589 57.9047L207.585 21.1416C207.586 20.9106 207.481 20.6887 207.293 20.5246C207.104 20.3605 206.849 20.2676 206.581 20.2662ZM234.298 49.9459C230.126 49.8363 227.296 48.2016 227.296 48.2016V30.8581C227.296 30.8581 230.088 29.3806 233.514 29.1164C237.846 28.7814 242.02 29.9111 242.02 38.833C242.02 48.2409 240.136 50.0974 234.298 49.9455V49.9459ZM239.044 19.0899C232.211 19.0899 227.564 21.7217 227.564 21.7217V3.17655C227.564 3.06246 227.539 2.94934 227.489 2.84366C227.44 2.73798 227.366 2.64181 227.273 2.56066C227.181 2.47951 227.07 2.41497 226.948 2.37074C226.826 2.3265 226.696 2.30344 226.564 2.30288H214.406C214.274 2.30339 214.143 2.32639 214.021 2.37059C213.899 2.41478 213.788 2.47929 213.695 2.56043C213.602 2.64157 213.529 2.73775 213.479 2.84346C213.429 2.94918 213.403 3.06237 213.404 3.17655V57.9414C213.404 58.4249 213.853 58.8177 214.408 58.8177H222.842C223.223 58.8177 223.51 58.6494 223.723 58.3528C223.932 58.0584 224.234 55.8276 224.234 55.8276C224.234 55.8276 229.206 59.8947 238.616 59.8947C249.664 59.8947 256 55.0567 256 38.176C256 21.2953 245.881 19.0895 239.044 19.0895V19.0899ZM106.115 20.1712H97.021L97.007 9.79986C97.007 9.40748 96.773 9.21108 96.247 9.21108H83.855C83.373 9.21108 83.1145 9.3941 83.1145 9.79381V20.5118C83.1145 20.5118 76.9045 21.8059 76.4845 21.9104C76.2751 21.9628 76.091 22.0726 75.9601 22.2232C75.8292 22.3737 75.7584 22.5569 75.7585 22.7452V29.4803C75.7585 29.9646 76.2065 30.3553 76.761 30.3553H83.1145V46.5578C83.1145 58.5924 92.8925 59.7747 99.491 59.7747C102.506 59.7747 106.113 58.9386 106.708 58.7491C107.068 58.6347 107.277 58.3131 107.277 57.9635L107.287 50.5545C107.287 50.0715 106.814 49.6804 106.282 49.6804C105.752 49.6804 104.397 49.8665 103.001 49.8665C98.5345 49.8665 97.021 48.0734 97.021 45.7528L97.0205 30.3557H106.115C106.247 30.3552 106.378 30.3322 106.5 30.2879C106.622 30.2437 106.733 30.179 106.826 30.0977C106.92 30.0164 106.993 29.92 107.043 29.814C107.093 29.7081 107.118 29.5947 107.118 29.4803V21.0445C107.118 20.561 106.669 20.1717 106.115 20.1717V20.1712Z" fill="#B0B0B0"/>
</g>
<defs>
<clipPath id="clip0_536_295">
<rect width="256" height="60" fill="white"/>
</clipPath>
</defs>
</svg>
