<svg width="130" height="130" viewBox="0 0 130 130" fill="none" xmlns="http://www.w3.org/2000/svg">
<path d="M16.2768 75.0138L10.0801 5.51562H78.1691L71.9641 75.0028L44.0832 82.7328L16.2768 75.0138Z" fill="#E44F26"/>
<path d="M44.124 76.8255L66.6549 70.5792L71.9553 11.1992H44.124V76.8255Z" fill="#F1662A"/>
<path d="M44.1246 36.9732H32.8453L32.0677 28.2449H44.1246V19.7207H22.752L22.956 22.0096L25.0492 45.4974H44.1246V36.9732ZM44.1246 59.1097L44.086 59.1208L34.5938 56.5588L33.9871 49.7609H25.4297L26.6238 63.1416L44.086 67.9897L44.1246 67.9787V59.1097Z" fill="#EBEBEB"/>
<path d="M44.0938 36.9732V45.4974H54.5898L53.6025 56.5533L44.0938 59.118V67.9869L61.5696 63.1416L61.6965 61.702L63.6986 39.2622L63.9082 36.9732H44.0938ZM44.0938 19.7207V28.2449H64.6831L64.8541 26.331L65.243 22.0096L65.4471 19.7207H44.0938Z" fill="white"/>
<path d="M61.897 117.477L56.0361 51.7148H120.459L114.59 117.466L88.2085 124.781L61.897 117.477Z" fill="#1572B6"/>
<path d="M88.248 119.192L109.568 113.281L114.583 57.0938H88.248V119.192Z" fill="#33A9DC"/>
<path d="M88.248 80.9187H98.9209L99.6567 72.6597H88.248V64.5938H108.472L108.278 66.757L106.298 88.9846H88.248V80.9187Z" fill="white"/>
<path d="M88.2971 101.864L88.2606 101.875L79.2788 99.448L78.7047 93.0156H70.6074L71.7373 105.679L88.258 110.267L88.2971 110.257V101.864Z" fill="#EBEBEB"/>
<path d="M98.2342 88.6426L97.2635 99.4433L88.2686 101.87V110.262L104.802 105.68L104.925 104.318L106.326 88.6426H98.2342Z" fill="white"/>
<path d="M88.2766 64.5938V72.6597H68.7941L68.6323 70.8461L68.2644 66.757L68.0713 64.5938H88.2766ZM88.2479 80.9187V88.9846H79.3782L79.2164 87.171L78.8511 83.082L78.658 80.9187H88.2479Z" fill="#EBEBEB"/>
</svg>
