<svg width="130" height="130" viewBox="0 0 130 130" fill="none" xmlns="http://www.w3.org/2000/svg">
<g clip-path="url(#clip0_536_595)">
<path fill-rule="evenodd" clip-rule="evenodd" d="M0 0H130V130H0V0ZM99.3796 108.983C93.3508 108.983 89.9437 105.842 87.3275 101.562L77.3987 107.331C80.9846 114.416 88.3133 119.822 99.6612 119.822C111.264 119.822 119.903 113.799 119.903 102.798C119.903 92.5979 114.042 88.0642 103.664 83.6062L100.609 82.3008C95.3658 80.0258 93.0963 78.5471 93.0963 74.88C93.0963 71.9171 95.3712 69.6475 98.9463 69.6475C102.451 69.6475 104.71 71.1263 106.806 74.88L116.318 68.7754C112.293 61.6958 106.714 58.9929 98.9463 58.9929C88.0371 58.9929 81.055 65.9696 81.055 75.1346C81.055 85.0742 86.905 89.7812 95.7233 93.535L98.7783 94.8458C104.352 97.2833 107.673 98.7675 107.673 102.955C107.673 106.454 104.439 108.983 99.3796 108.983ZM52.0379 108.902C47.84 108.902 46.0904 106.031 44.1729 102.619L34.2279 108.642C37.1096 114.741 42.7754 119.8 52.5525 119.8C63.3804 119.8 70.7958 114.042 70.7958 101.395V59.6862H58.5812V101.232C58.5812 107.337 56.0462 108.902 52.0325 108.902H52.0379Z" fill="#FAFF16"/>
</g>
<defs>
<clipPath id="clip0_536_595">
<rect width="130" height="130" fill="white"/>
</clipPath>
</defs>
</svg>
