<svg width="256" height="69" viewBox="0 0 256 69" fill="none" xmlns="http://www.w3.org/2000/svg">
<g clip-path="url(#clip0_536_293)">
<path d="M170.328 0V50.1015C176.508 50.389 182.672 50.7365 188.818 51.1465V61.769C179.07 61.1189 169.311 60.6257 159.547 60.2895V0H170.328ZM256 0.006L241.961 32.553L255.996 68.772L255.981 68.7785C251.888 68.1963 247.792 67.6424 243.693 67.117L235.811 46.789L227.855 65.23C224.08 64.813 220.303 64.4196 216.524 64.05L230.209 32.335L217.676 0.0065H229.338L236.356 18.0985L244.159 0.006H256ZM122.546 59.763V0.0055H152.641V10.7235H133.327V24.6135H147.941V35.236H133.327V59.761L122.546 59.763ZM82.2895 10.724V0.005H115.635V10.7235H104.352V60.0535C100.754 60.1485 97.159 60.2595 93.572 60.395V10.724H82.2895ZM45.4335 63.483V0.007H75.3785V10.7245H56.213V25.2425C60.616 25.186 66.8765 25.1225 70.7715 25.1315V35.755C65.896 35.695 60.3925 35.822 56.213 35.8635V51.9455C62.5968 51.4424 68.9857 51.0058 75.3785 50.6355V61.259C65.3853 61.8355 55.4022 62.5773 45.4335 63.484V63.483ZM24.285 38.927L24.2845 0.005H35.0655V64.485C31.1245 64.89 27.1905 65.3215 23.264 65.777L10.7795 29.912V67.313C7.18315 67.781 3.58959 68.2704 -0.000976562 68.781V0.006H10.2445L24.2845 38.927H24.285ZM197.712 62.4095V0.006H208.494V63.3C204.904 62.98 201.312 62.685 197.712 62.41V62.4095Z" fill="#B0B0B0"/>
</g>
<defs>
<clipPath id="clip0_536_293">
<rect width="256" height="69" fill="white"/>
</clipPath>
</defs>
</svg>
