<svg width="146" height="130" viewBox="0 0 146 130" fill="none" xmlns="http://www.w3.org/2000/svg">
<g clip-path="url(#clip0_536_573)">
<path d="M120.012 42.0925C118.459 41.5596 116.892 41.0658 115.314 40.6118C115.579 39.5285 115.823 38.4582 116.04 37.4068C119.597 20.1413 117.271 6.23192 109.329 1.65227C101.715 -2.73808 89.2615 1.83986 76.6846 12.7855C75.4451 13.8662 74.2331 14.978 73.0497 16.1199C72.2576 15.3606 71.4514 14.616 70.6316 13.8865C57.4503 2.1831 44.2382 -2.74949 36.3048 1.84328C28.6969 6.24731 26.4442 19.3231 29.6463 35.686C29.9648 37.3066 30.3246 38.9188 30.725 40.5211C28.8549 41.0525 27.0503 41.6181 25.3232 42.2202C9.86917 47.6084 0 56.0521 0 64.8106C0 73.8564 10.595 82.9296 26.6911 88.4313C27.996 88.8755 29.3118 89.2871 30.6372 89.6657C30.2068 91.3914 29.8246 93.1289 29.4912 94.8759C26.4385 110.955 28.8224 123.722 36.4097 128.098C44.2462 132.617 57.399 127.972 70.2057 116.777C71.2442 115.867 72.2598 114.931 73.2516 113.97C74.5331 115.206 75.8488 116.407 77.1972 117.57C89.6031 128.245 101.855 132.555 109.435 128.167C117.264 123.635 119.809 109.92 116.505 93.2338C116.245 91.9266 115.953 90.6258 115.63 89.3327C116.554 89.059 117.46 88.7774 118.344 88.4843C135.077 82.9405 145.965 73.9773 145.965 64.8106C145.965 56.0202 135.777 47.5195 120.012 42.0925ZM116.383 82.5659C115.585 82.8299 114.766 83.0847 113.931 83.3327C112.084 77.4845 109.591 71.2661 106.54 64.8408C109.451 58.5689 111.848 52.4298 113.644 46.6197C115.137 47.0519 116.586 47.5075 117.983 47.9881C131.49 52.6385 139.729 59.5131 139.729 64.8106C139.729 70.4531 130.831 77.7781 116.383 82.5659ZM110.388 94.4449C111.849 101.823 112.057 108.494 111.09 113.709C110.221 118.396 108.472 121.52 106.31 122.771C101.711 125.434 91.8735 121.973 81.2642 112.843C80.0101 111.762 78.7862 110.646 77.594 109.496C81.7073 104.998 85.8177 99.7692 89.8294 93.9614C96.8859 93.3353 103.552 92.3113 109.598 90.9138C109.889 92.0844 110.153 93.2618 110.388 94.4449ZM49.7626 122.311C45.2685 123.898 41.6889 123.943 39.5251 122.696C34.921 120.041 33.0069 109.789 35.6177 96.0391C35.9281 94.4143 36.2834 92.7983 36.6834 91.1932C42.6622 92.516 49.2803 93.467 56.3533 94.0406C60.3924 99.7236 64.6214 104.947 68.8835 109.521C67.9777 110.397 67.0505 111.251 66.1027 112.082C60.4392 117.032 54.7642 120.545 49.7626 122.311ZM28.7083 82.5311C21.5908 80.0981 15.7129 76.9365 11.684 73.4864C8.06342 70.3864 6.23601 67.308 6.23601 64.8106C6.23601 59.4954 14.1597 52.716 27.3758 48.1085C28.9797 47.5497 30.6583 47.0223 32.4002 46.5274C34.2271 52.4686 36.6229 58.6806 39.5143 64.9623C36.5853 71.3368 34.1552 77.6481 32.3107 83.6595C31.1008 83.3129 29.8997 82.9367 28.7083 82.5311ZM35.766 34.4881C33.0229 20.4692 34.8446 9.89415 39.4293 7.23999C44.3123 4.41306 55.1103 8.44363 66.4916 18.5494C67.2337 19.2099 67.9639 19.8838 68.6816 20.5707C64.4407 25.1247 60.2504 30.3093 56.2472 35.9586C49.3823 36.5949 42.8111 37.6167 36.7695 38.9856C36.3972 37.4953 36.0626 35.9959 35.766 34.4887V34.4881ZM98.7287 50.0356C97.3017 47.5707 95.8218 45.1368 94.2899 42.7357C98.9471 43.3247 103.409 44.1064 107.6 45.062C106.342 49.0943 104.774 53.3096 102.928 57.6315C101.579 55.0719 100.179 52.5394 98.7287 50.0356ZM73.0526 25.0272C75.9286 28.1432 78.8091 31.6218 81.6423 35.3964C75.8949 35.125 70.138 35.1238 64.3905 35.393C67.2265 31.6532 70.1316 28.1791 73.0526 25.0272ZM47.2117 50.0784C45.7796 52.562 44.4057 55.0787 43.091 57.6264C41.2756 53.3199 39.7218 49.0852 38.4532 44.9959C42.6178 44.0642 47.0589 43.3024 51.6864 42.7243C50.1375 45.1401 48.6455 47.592 47.2117 50.0778V50.0784ZM51.8193 87.3405C47.0383 86.8068 42.5305 86.0844 38.3671 85.1778C39.6557 81.0156 41.2436 76.6908 43.0984 72.2919C44.4183 74.8415 45.7979 77.3597 47.2362 79.8444C48.7152 82.3988 50.2467 84.9007 51.8193 87.3405ZM73.2248 105.033C70.269 101.845 67.3212 98.317 64.4424 94.523C67.2374 94.6325 70.0865 94.6884 72.9825 94.6884C75.9576 94.6884 78.8986 94.6217 81.7934 94.4928C78.951 98.3552 76.0814 101.888 73.2248 105.033ZM102.987 72.0672C104.938 76.5146 106.582 80.8166 107.888 84.9076C103.656 85.8735 99.0868 86.6512 94.2722 87.2288C95.815 84.783 97.309 82.3068 98.7532 79.8017C100.222 77.2552 101.633 74.6765 102.987 72.0672ZM93.352 76.6862C91.1409 80.5271 88.8056 84.2951 86.3496 87.9842C81.9009 88.2993 77.4423 88.4558 72.9825 88.4535C68.4399 88.4535 64.0216 88.3121 59.7669 88.0361C57.2469 84.3555 54.867 80.5809 52.6323 76.7204H52.6329C50.4087 72.8803 48.3312 68.9572 46.4049 64.9594C48.3263 60.9607 50.3975 57.0357 52.6141 53.1927L52.6135 53.1933C54.8292 49.3493 57.1901 45.5908 59.6911 41.926C64.0318 41.5976 68.4832 41.4266 72.9819 41.4266H72.9825C77.5017 41.4266 81.9587 41.5993 86.2983 41.93C88.7741 45.5893 91.1199 49.3349 93.3314 53.1596C95.5554 56.9942 97.654 60.9 99.6239 64.871C97.6742 68.8826 95.5822 72.8235 93.352 76.6862ZM106.215 7.05411C111.103 9.87306 113.004 21.2406 109.933 36.1479C109.737 37.0989 109.516 38.0677 109.277 39.0501C103.221 37.652 96.6447 36.6126 89.7599 35.9666C85.7493 30.2551 81.5932 25.0625 77.4213 20.5673C78.5147 19.5133 79.6341 18.4867 80.7785 17.4883C91.5548 8.11065 101.626 4.40793 106.215 7.05411ZM72.9825 51.7764C80.1809 51.7764 86.0167 57.6121 86.0167 64.8106C86.0167 72.0091 80.1809 77.8448 72.9825 77.8448C65.784 77.8448 59.9482 72.0091 59.9482 64.8106C59.9482 57.6121 65.784 51.7764 72.9825 51.7764Z" fill="#00D8FF"/>
</g>
<defs>
<clipPath id="clip0_536_573">
<rect width="145.965" height="130" fill="white"/>
</clipPath>
</defs>
</svg>
